# Blender v2.78 (sub 0) OBJ File: ''
# www.blender.org
mtllib one.mtl
o 1-UDSeo
v -4.475410 16.404444 2.000001
v 1.577869 17.236410 2.000001
v 1.434426 17.408541 2.000001
v -1.549180 15.314280 2.000001
v -1.480447 15.280611 2.000001
v -1.417691 15.236980 2.000001
v -1.360912 15.183388 2.000001
v -1.310109 15.119835 2.000001
v -1.265283 15.046320 2.000001
v -1.226434 14.962845 2.000001
v -1.193562 14.869408 2.000001
v -1.166666 14.766010 2.000001
v 1.577869 0.338869 2.000000
v -4.475410 15.687229 2.000001
v -1.807377 15.371656 2.000001
v -1.145748 14.652651 2.000001
v -1.130806 14.529329 2.000001
v -1.121841 14.396048 2.000001
v -1.118852 14.252804 2.000001
v -1.118852 0.338869 2.000000
v -1.129810 0.145023 2.000000
v 1.581853 0.158570 2.000000
v 1.593807 -0.009377 2.000000
v -1.153119 -0.034878 2.000000
v 1.613730 -0.164973 2.000000
v -1.188780 -0.200833 2.000000
v 1.641621 -0.308216 2.000000
v -1.236794 -0.352843 2.000000
v 1.677482 -0.439107 2.000000
v -1.297159 -0.490906 2.000000
v 1.721312 -0.557647 2.000000
v -1.369877 -0.615024 2.000000
v 1.773110 -0.663834 2.000000
v -1.454946 -0.725196 2.000000
v 1.832878 -0.757669 2.000000
v -1.552368 -0.821422 2.000000
v 1.900615 -0.839153 2.000000
v -1.662141 -0.903702 2.000000
v 1.976321 -0.908284 2.000000
v -1.784267 -0.972037 2.000000
v 2.059995 -0.965063 2.000000
v 2.151639 -1.009491 2.000000
v -1.918744 -1.026425 2.000000
v 2.180527 -1.018656 2.000000
v 2.209813 -1.027023 2.000000
v -2.065574 -1.066868 2.000000
v 2.239498 -1.034594 2.000000
v 2.269581 -1.041367 2.000000
v 2.300063 -1.047344 2.000000
v 2.330943 -1.052524 2.000000
v 2.362221 -1.056907 2.000000
v 2.393898 -1.060493 2.000000
v 2.425973 -1.063282 2.000000
v 2.458447 -1.065274 2.000000
v 2.491319 -1.066470 2.000000
v 2.524590 -1.066868 2.000000
v -4.475410 -1.267688 2.000000
v 4.934427 -1.267688 2.000000
v -4.475410 -2.099655 2.000000
v 4.934427 -2.099655 2.000000
v 1.577869 17.236410 0.000001
v -4.475410 16.404444 0.000001
v 1.434426 17.408541 0.000001
v -1.549180 15.314280 0.000001
v -1.480447 15.280611 0.000001
v -1.417691 15.236980 0.000001
v -1.360912 15.183388 0.000001
v -1.310109 15.119835 0.000001
v -1.265283 15.046320 0.000001
v -1.226434 14.962845 0.000001
v -1.193562 14.869408 0.000001
v -1.166666 14.766010 0.000001
v 1.577869 0.338870 0.000000
v -1.807377 15.371656 0.000001
v -4.475410 15.687229 0.000001
v -1.145748 14.652651 0.000001
v -1.130806 14.529329 0.000001
v -1.121841 14.396048 0.000001
v -1.118852 14.252804 0.000001
v -1.118852 0.338870 0.000000
v -1.129810 0.145023 0.000000
v 1.581853 0.158570 0.000000
v 1.593807 -0.009377 -0.000000
v -1.153119 -0.034878 -0.000000
v 1.613730 -0.164972 -0.000000
v -1.188780 -0.200833 -0.000000
v 1.641621 -0.308216 -0.000000
v -1.236794 -0.352843 -0.000000
v 1.677482 -0.439107 -0.000000
v -1.297159 -0.490906 -0.000000
v 1.721312 -0.557647 -0.000000
v -1.369877 -0.615024 -0.000000
v 1.773110 -0.663834 -0.000000
v -1.454946 -0.725196 -0.000000
v 1.832878 -0.757669 -0.000000
v -1.552368 -0.821422 -0.000000
v 1.900615 -0.839153 -0.000000
v -1.662141 -0.903702 -0.000000
v 1.976321 -0.908284 -0.000000
v -1.784267 -0.972037 -0.000000
v 2.059995 -0.965063 -0.000000
v 2.151639 -1.009491 -0.000000
v -1.918744 -1.026425 -0.000000
v 2.180527 -1.018655 -0.000000
v 2.209813 -1.027023 -0.000000
v -2.065574 -1.066868 -0.000000
v 2.239498 -1.034594 -0.000000
v 2.269581 -1.041367 -0.000000
v 2.300063 -1.047344 -0.000000
v 2.330943 -1.052524 -0.000000
v 2.362221 -1.056907 -0.000000
v 2.393898 -1.060493 -0.000000
v 2.425973 -1.063282 -0.000000
v 2.458447 -1.065274 -0.000000
v 2.491319 -1.066470 -0.000000
v 2.524590 -1.066868 -0.000000
v -4.475410 -1.267688 -0.000000
v 4.934427 -1.267688 -0.000000
v -4.475410 -2.099655 -0.000000
v 4.934427 -2.099655 -0.000000
vt 0.0000 0.0000
vt 1.0000 0.0000
vt 1.0000 1.0000
vt 1.0000 0.0000
vt 1.0000 1.0000
vt 0.0000 0.0000
vt 1.0000 0.0000
vt 0.0000 0.0000
vt 1.0000 0.0000
vt 0.0000 0.0000
vt 1.0000 0.0000
vt 0.0000 0.0000
vt 1.0000 0.0000
vt 0.0000 0.0000
vt 1.0000 0.0000
vt 0.0000 0.0000
vt 1.0000 0.0000
vt 0.0000 0.0000
vt 1.0000 0.0000
vt 0.0000 0.0000
vt 1.0000 0.0000
vt 0.0000 0.0000
vt 1.0000 0.0000
vt 0.0000 0.0000
vt 1.0000 0.0000
vt 1.0000 1.0000
vt 0.0000 0.0000
vt 0.0000 0.0000
vt 1.0000 1.0000
vt 0.0000 0.0000
vt 1.0000 1.0000
vt 0.0000 0.0000
vt 1.0000 1.0000
vt 0.0000 0.0000
vt 1.0000 1.0000
vt 0.0000 0.0000
vt 1.0000 1.0000
vt 0.0000 0.0000
vt 1.0000 1.0000
vt 1.0000 0.0000
vt 1.0000 1.0000
vt 1.0000 0.0000
vt 1.0000 1.0000
vt 0.0000 0.0000
vt 1.0000 1.0000
vt 1.0000 0.0000
vt 1.0000 1.0000
vt 0.0000 0.0000
vt 1.0000 1.0000
vt 1.0000 0.0000
vt 1.0000 1.0000
vt 0.0000 0.0000
vt 1.0000 1.0000
vt 1.0000 0.0000
vt 1.0000 1.0000
vt 0.0000 0.0000
vt 1.0000 1.0000
vt 1.0000 0.0000
vt 1.0000 1.0000
vt 0.0000 0.0000
vt 1.0000 1.0000
vt 1.0000 0.0000
vt 1.0000 1.0000
vt 0.0000 0.0000
vt 1.0000 1.0000
vt 1.0000 0.0000
vt 1.0000 1.0000
vt 0.0000 0.0000
vt 1.0000 1.0000
vt 1.0000 0.0000
vt 1.0000 1.0000
vt 0.0000 0.0000
vt 1.0000 1.0000
vt 1.0000 0.0000
vt 1.0000 1.0000
vt 0.0000 0.0000
vt 1.0000 1.0000
vt 1.0000 0.0000
vt 1.0000 1.0000
vt 1.0000 0.0000
vt 1.0000 1.0000
vt 0.0000 0.0000
vt 1.0000 1.0000
vt 1.0000 0.0000
vt 1.0000 1.0000
vt 1.0000 0.0000
vt 1.0000 1.0000
vt 0.0000 0.0000
vt 1.0000 1.0000
vt 1.0000 0.0000
vt 1.0000 1.0000
vt 1.0000 0.0000
vt 1.0000 1.0000
vt 1.0000 0.0000
vt 1.0000 1.0000
vt 1.0000 0.0000
vt 1.0000 1.0000
vt 1.0000 0.0000
vt 1.0000 1.0000
vt 1.0000 0.0000
vt 1.0000 1.0000
vt 1.0000 0.0000
vt 1.0000 1.0000
vt 1.0000 0.0000
vt 1.0000 1.0000
vt 1.0000 0.0000
vt 1.0000 1.0000
vt 1.0000 0.0000
vt 1.0000 1.0000
vt 0.0000 0.0000
vt 1.0000 1.0000
vt 1.0000 0.0000
vt 1.0000 1.0000
vt 0.0000 0.0000
vt 1.0000 1.0000
vt 1.0000 0.0000
vt 1.0000 1.0000
vt 0.0000 0.0000
vt 1.0000 0.0000
vt 1.0000 1.0000
vt 0.0000 0.0000
vt 1.0000 1.0000
vt 0.0000 0.0000
vt 1.0000 0.0000
vt 0.0000 0.0000
vt 1.0000 0.0000
vt 0.0000 0.0000
vt 1.0000 0.0000
vt 0.0000 0.0000
vt 1.0000 0.0000
vt 0.0000 0.0000
vt 1.0000 0.0000
vt 0.0000 0.0000
vt 1.0000 0.0000
vt 0.0000 0.0000
vt 1.0000 0.0000
vt 0.0000 0.0000
vt 1.0000 0.0000
vt 0.0000 0.0000
vt 1.0000 0.0000
vt 0.0000 0.0000
vt 1.0000 0.0000
vt 1.0000 1.0000
vt 1.0000 0.0000
vt 1.0000 0.0000
vt 1.0000 1.0000
vt 1.0000 0.0000
vt 1.0000 1.0000
vt 1.0000 0.0000
vt 1.0000 1.0000
vt 1.0000 0.0000
vt 1.0000 1.0000
vt 1.0000 0.0000
vt 1.0000 1.0000
vt 1.0000 0.0000
vt 1.0000 1.0000
vt 0.0000 0.0000
vt 1.0000 1.0000
vt 0.0000 0.0000
vt 1.0000 1.0000
vt 1.0000 0.0000
vt 1.0000 1.0000
vt 0.0000 0.0000
vt 1.0000 1.0000
vt 1.0000 0.0000
vt 1.0000 1.0000
vt 0.0000 0.0000
vt 1.0000 1.0000
vt 1.0000 0.0000
vt 1.0000 1.0000
vt 0.0000 0.0000
vt 1.0000 1.0000
vt 1.0000 0.0000
vt 1.0000 1.0000
vt 0.0000 0.0000
vt 1.0000 1.0000
vt 1.0000 0.0000
vt 1.0000 1.0000
vt 0.0000 0.0000
vt 1.0000 1.0000
vt 1.0000 0.0000
vt 1.0000 1.0000
vt 0.0000 0.0000
vt 1.0000 1.0000
vt 1.0000 0.0000
vt 1.0000 1.0000
vt 0.0000 0.0000
vt 1.0000 1.0000
vt 1.0000 0.0000
vt 1.0000 1.0000
vt 0.0000 0.0000
vt 1.0000 1.0000
vt 1.0000 0.0000
vt 1.0000 1.0000
vt 0.0000 0.0000
vt 1.0000 1.0000
vt 0.0000 0.0000
vt 1.0000 1.0000
vt 1.0000 0.0000
vt 1.0000 1.0000
vt 0.0000 0.0000
vt 1.0000 1.0000
vt 0.0000 0.0000
vt 1.0000 1.0000
vt 1.0000 0.0000
vt 1.0000 1.0000
vt 0.0000 0.0000
vt 1.0000 1.0000
vt 0.0000 0.0000
vt 1.0000 1.0000
vt 0.0000 0.0000
vt 1.0000 1.0000
vt 0.0000 0.0000
vt 1.0000 1.0000
vt 0.0000 0.0000
vt 1.0000 1.0000
vt 0.0000 0.0000
vt 1.0000 1.0000
vt 0.0000 0.0000
vt 1.0000 1.0000
vt 0.0000 0.0000
vt 1.0000 1.0000
vt 0.0000 0.0000
vt 1.0000 1.0000
vt 0.0000 0.0000
vt 1.0000 1.0000
vt 1.0000 0.0000
vt 1.0000 1.0000
vt 0.0000 0.0000
vt 1.0000 1.0000
vt 1.0000 0.0000
vt 1.0000 1.0000
vt 0.0000 0.0000
vt 1.0000 1.0000
vt 0.0000 0.0000
vt 1.0000 1.0000
vt 1.0000 0.0000
vt 0.0000 0.0000
vt 1.0000 0.0000
vt 1.0000 1.0000
vt 0.0000 0.0000
vt 1.0000 0.0000
vt 1.0000 1.0000
vt 1.0000 0.0000
vt 0.0000 0.0000
vt 1.0000 1.0000
vt 1.0000 0.0000
vt 0.0000 0.0000
vt 1.0000 0.0000
vt 0.0000 0.0000
vt 1.0000 0.0000
vt 0.0000 0.0000
vt 1.0000 0.0000
vt 0.0000 0.0000
vt 1.0000 0.0000
vt 0.0000 0.0000
vt 1.0000 0.0000
vt 0.0000 0.0000
vt 1.0000 0.0000
vt 0.0000 0.0000
vt 1.0000 0.0000
vt 0.0000 0.0000
vt 1.0000 0.0000
vt 0.0000 0.0000
vt 1.0000 0.0000
vt 0.0000 0.0000
vt 1.0000 0.0000
vt 0.0000 0.0000
vt 1.0000 0.0000
vt 0.0000 0.0000
vt 1.0000 0.0000
vt 0.0000 0.0000
vt 1.0000 0.0000
vt 0.0000 0.0000
vt 1.0000 0.0000
vt 0.0000 0.0000
vt 1.0000 0.0000
vt 0.0000 0.0000
vt 1.0000 0.0000
vt 0.0000 0.0000
vt 1.0000 1.0000
vt 1.0000 1.0000
vt 1.0000 1.0000
vt 1.0000 1.0000
vt 1.0000 1.0000
vt 1.0000 1.0000
vt 1.0000 1.0000
vt 1.0000 1.0000
vt 1.0000 1.0000
vt 1.0000 1.0000
vt 1.0000 1.0000
vt 1.0000 1.0000
vt 1.0000 1.0000
vt 1.0000 1.0000
vt 1.0000 1.0000
vt 1.0000 1.0000
vt 1.0000 1.0000
vt 1.0000 0.0000
vt 1.0000 1.0000
vt 0.0000 0.0000
vt 1.0000 1.0000
vt 1.0000 0.0000
vt 0.0000 0.0000
vt 1.0000 1.0000
vt 1.0000 0.0000
vt 0.0000 0.0000
vt 0.0000 0.0000
vt 1.0000 0.0000
vt 0.0000 0.0000
vt 1.0000 0.0000
vt 0.0000 0.0000
vt 1.0000 0.0000
vt 0.0000 0.0000
vt 1.0000 0.0000
vt 0.0000 0.0000
vt 1.0000 0.0000
vt 0.0000 0.0000
vt 1.0000 0.0000
vt 0.0000 0.0000
vt 1.0000 0.0000
vt 0.0000 0.0000
vt 1.0000 0.0000
vt 0.0000 0.0000
vt 1.0000 0.0000
vt 0.0000 0.0000
vt 1.0000 0.0000
vt 0.0000 0.0000
vt 1.0000 0.0000
vt 0.0000 0.0000
vt 1.0000 0.0000
vt 0.0000 0.0000
vt 1.0000 0.0000
vt 0.0000 0.0000
vt 1.0000 0.0000
vt 0.0000 0.0000
vt 1.0000 0.0000
vt 0.0000 0.0000
vt 1.0000 0.0000
vt 0.0000 0.0000
vt 1.0000 0.0000
vt 0.0000 0.0000
vt 1.0000 0.0000
vt 0.0000 0.0000
vt 1.0000 0.0000
vt 0.0000 0.0000
vt 1.0000 0.0000
vt 0.0000 0.0000
vt 1.0000 0.0000
vt 0.0000 0.0000
vt 1.0000 0.0000
vt 0.0000 0.0000
vt 1.0000 0.0000
vt 0.0000 0.0000
vt 1.0000 0.0000
vt 0.0000 0.0000
vt 1.0000 0.0000
vt 0.0000 0.0000
vt 1.0000 0.0000
vt 0.0000 0.0000
vt 1.0000 0.0000
vn 0.0000 0.0000 1.0000
vn -0.0000 0.0000 -1.0000
vn 1.0000 0.0000 0.0000
vn 0.0000 -1.0000 0.0000
vn -1.0000 0.0000 0.0000
vn -0.0830 0.9965 0.0000
vn -0.2656 0.9641 0.0000
vn -0.3749 0.9270 0.0000
vn -0.4883 0.8727 0.0000
vn -0.5998 0.8002 0.0000
vn -0.7027 0.7115 0.0000
vn -0.7915 0.6112 0.0000
vn -0.8628 0.5055 0.0000
vn -0.9162 0.4006 0.0000
vn -0.9536 0.3012 0.0000
vn -0.9777 0.2101 0.0000
vn -0.9917 0.1285 0.0000
vn -0.9984 0.0564 0.0000
vn -0.9998 -0.0209 0.0000
vn -0.9977 -0.0671 0.0000
vn -0.9927 -0.1203 0.0000
vn -0.9834 -0.1815 0.0000
vn -0.9678 -0.2517 0.0000
vn -0.9433 -0.3319 0.0000
vn -0.9066 -0.4219 0.0000
vn -0.8538 -0.5206 0.0000
vn -0.7811 -0.6244 0.0000
vn -0.6864 -0.7272 0.0000
vn -0.5708 -0.8211 0.0000
vn -0.4399 -0.8980 0.0000
vn -0.2169 -0.9762 0.0000
vn -0.1175 -0.9931 0.0000
vn -0.1675 0.9859 0.0000
vn 0.7682 0.6402 0.0000
vn 0.9998 0.0221 0.0000
vn 0.9975 0.0710 0.0000
vn 0.9919 0.1270 0.0000
vn 0.9816 0.1911 0.0000
vn 0.9645 0.2642 0.0000
vn 0.9379 0.3468 0.0000
vn 0.8988 0.4384 0.0000
vn 0.8434 0.5372 0.0000
vn 0.7690 0.6393 0.0000
vn 0.6743 0.7384 0.0000
vn 0.5615 0.8275 0.0000
vn 0.4362 0.8998 0.0000
vn 0.3024 0.9532 0.0000
vn 0.2747 0.9615 0.0000
vn 0.2471 0.9690 0.0000
vn 0.2197 0.9756 0.0000
vn 0.1924 0.9813 0.0000
vn 0.1654 0.9862 0.0000
vn 0.1388 0.9903 0.0000
vn 0.1125 0.9937 0.0000
vn 0.0866 0.9962 0.0000
vn 0.0612 0.9981 0.0000
vn 0.0363 0.9993 0.0000
vn 0.0120 0.9999 0.0000
vn 0.0830 0.9965 0.0000
g 1-UDSeo_1-UDSeo_None
usemtl None
s off
f 1/1/1 2/2/1 3/3/1
f 1/1/1 4/4/1 2/5/1
f 4/6/1 5/7/1 2/5/1
f 5/8/1 6/9/1 2/5/1
f 6/10/1 7/11/1 2/5/1
f 7/12/1 8/13/1 2/5/1
f 8/14/1 9/15/1 2/5/1
f 9/16/1 10/17/1 2/5/1
f 10/18/1 11/19/1 2/5/1
f 11/20/1 12/21/1 2/5/1
f 12/22/1 13/23/1 2/5/1
f 14/24/1 15/25/1 1/26/1
f 15/27/1 4/4/1 1/26/1
f 16/28/1 13/23/1 12/29/1
f 17/30/1 13/23/1 16/31/1
f 18/32/1 13/23/1 17/33/1
f 19/34/1 13/23/1 18/35/1
f 20/36/1 13/23/1 19/37/1
f 21/38/1 13/23/1 20/39/1
f 21/38/1 22/40/1 13/41/1
f 21/38/1 23/42/1 22/43/1
f 24/44/1 23/42/1 21/45/1
f 24/44/1 25/46/1 23/47/1
f 26/48/1 25/46/1 24/49/1
f 26/48/1 27/50/1 25/51/1
f 28/52/1 27/50/1 26/53/1
f 28/52/1 29/54/1 27/55/1
f 30/56/1 29/54/1 28/57/1
f 30/56/1 31/58/1 29/59/1
f 32/60/1 31/58/1 30/61/1
f 32/60/1 33/62/1 31/63/1
f 34/64/1 33/62/1 32/65/1
f 34/64/1 35/66/1 33/67/1
f 36/68/1 35/66/1 34/69/1
f 36/68/1 37/70/1 35/71/1
f 38/72/1 37/70/1 36/73/1
f 38/72/1 39/74/1 37/75/1
f 40/76/1 39/74/1 38/77/1
f 40/76/1 41/78/1 39/79/1
f 40/76/1 42/80/1 41/81/1
f 43/82/1 42/80/1 40/83/1
f 43/82/1 44/84/1 42/85/1
f 43/82/1 45/86/1 44/87/1
f 46/88/1 45/86/1 43/89/1
f 46/88/1 47/90/1 45/91/1
f 46/88/1 48/92/1 47/93/1
f 46/88/1 49/94/1 48/95/1
f 46/88/1 50/96/1 49/97/1
f 46/88/1 51/98/1 50/99/1
f 46/88/1 52/100/1 51/101/1
f 46/88/1 53/102/1 52/103/1
f 46/88/1 54/104/1 53/105/1
f 46/88/1 55/106/1 54/107/1
f 46/88/1 56/108/1 55/109/1
f 57/110/1 56/108/1 46/111/1
f 57/110/1 58/112/1 56/113/1
f 59/114/1 58/112/1 57/115/1
f 59/114/1 60/116/1 58/117/1
f 61/118/2 62/119/2 63/120/2
f 64/121/2 62/119/2 61/122/2
f 65/123/2 64/124/2 61/122/2
f 66/125/2 65/126/2 61/122/2
f 67/127/2 66/128/2 61/122/2
f 68/129/2 67/130/2 61/122/2
f 69/131/2 68/132/2 61/122/2
f 70/133/2 69/134/2 61/122/2
f 71/135/2 70/136/2 61/122/2
f 72/137/2 71/138/2 61/122/2
f 73/139/2 72/140/2 61/122/2
f 74/141/2 75/142/2 62/143/2
f 64/121/2 74/144/2 62/143/2
f 73/139/2 76/145/2 72/146/2
f 73/139/2 77/147/2 76/148/2
f 73/139/2 78/149/2 77/150/2
f 73/139/2 79/151/2 78/152/2
f 73/139/2 80/153/2 79/154/2
f 73/139/2 81/155/2 80/156/2
f 82/157/2 81/155/2 73/158/2
f 83/159/2 81/155/2 82/160/2
f 83/159/2 84/161/2 81/162/2
f 85/163/2 84/161/2 83/164/2
f 85/163/2 86/165/2 84/166/2
f 87/167/2 86/165/2 85/168/2
f 87/167/2 88/169/2 86/170/2
f 89/171/2 88/169/2 87/172/2
f 89/171/2 90/173/2 88/174/2
f 91/175/2 90/173/2 89/176/2
f 91/175/2 92/177/2 90/178/2
f 93/179/2 92/177/2 91/180/2
f 93/179/2 94/181/2 92/182/2
f 95/183/2 94/181/2 93/184/2
f 95/183/2 96/185/2 94/186/2
f 97/187/2 96/185/2 95/188/2
f 97/187/2 98/189/2 96/190/2
f 99/191/2 98/189/2 97/192/2
f 99/191/2 100/193/2 98/194/2
f 101/195/2 100/193/2 99/196/2
f 102/197/2 100/193/2 101/198/2
f 102/197/2 103/199/2 100/200/2
f 104/201/2 103/199/2 102/202/2
f 105/203/2 103/199/2 104/204/2
f 105/203/2 106/205/2 103/206/2
f 107/207/2 106/205/2 105/208/2
f 108/209/2 106/205/2 107/210/2
f 109/211/2 106/205/2 108/212/2
f 110/213/2 106/205/2 109/214/2
f 111/215/2 106/205/2 110/216/2
f 112/217/2 106/205/2 111/218/2
f 113/219/2 106/205/2 112/220/2
f 114/221/2 106/205/2 113/222/2
f 115/223/2 106/205/2 114/224/2
f 116/225/2 106/205/2 115/226/2
f 116/225/2 117/227/2 106/228/2
f 118/229/2 117/227/2 116/230/2
f 118/229/2 119/231/2 117/232/2
f 120/233/2 119/231/2 118/234/2
f 58/235/3 60/116/3 120/236/3
f 120/233/3 118/237/3 58/117/3
f 60/238/4 59/239/4 119/240/4
f 119/241/4 120/242/4 60/243/4
f 59/114/5 57/244/5 117/232/5
f 117/245/5 119/231/5 59/246/5
f 57/110/6 46/247/6 106/228/6
f 106/248/6 117/227/6 57/115/6
f 46/88/7 43/249/7 103/206/7
f 103/250/7 106/205/7 46/111/7
f 43/82/8 40/251/8 100/200/8
f 100/252/8 103/199/8 43/89/8
f 40/76/9 38/253/9 98/194/9
f 98/254/9 100/193/9 40/83/9
f 38/72/10 36/255/10 96/190/10
f 96/256/10 98/189/10 38/77/10
f 36/68/11 34/257/11 94/186/11
f 94/258/11 96/185/11 36/73/11
f 34/64/12 32/259/12 92/182/12
f 92/260/12 94/181/12 34/69/12
f 32/60/13 30/261/13 90/178/13
f 90/262/13 92/177/13 32/65/13
f 30/56/14 28/263/14 88/174/14
f 88/264/14 90/173/14 30/61/14
f 28/52/15 26/265/15 86/170/15
f 86/266/15 88/169/15 28/57/15
f 26/48/16 24/267/16 84/166/16
f 84/268/16 86/165/16 26/53/16
f 24/44/17 21/269/17 81/162/17
f 81/270/17 84/161/17 24/49/17
f 21/38/18 20/271/18 80/156/18
f 80/272/18 81/155/18 21/45/18
f 20/36/5 19/273/5 79/154/5
f 79/274/5 80/153/5 20/39/5
f 19/34/19 18/275/19 78/152/19
f 78/276/19 79/151/19 19/37/19
f 18/32/20 17/277/20 77/150/20
f 77/278/20 78/149/20 18/35/20
f 17/30/21 16/279/21 76/148/21
f 76/280/21 77/147/21 17/33/21
f 16/28/22 12/21/22 72/146/22
f 72/137/22 76/145/22 16/31/22
f 12/22/23 11/19/23 71/281/23
f 71/135/23 72/140/23 12/29/23
f 11/20/24 10/17/24 70/282/24
f 70/133/24 71/138/24 11/283/24
f 10/18/25 9/15/25 69/284/25
f 69/131/25 70/136/25 10/285/25
f 9/16/26 8/13/26 68/286/26
f 68/129/26 69/134/26 9/287/26
f 8/14/27 7/11/27 67/288/27
f 67/127/27 68/132/27 8/289/27
f 7/12/28 6/9/28 66/290/28
f 66/125/28 67/130/28 7/291/28
f 6/10/29 5/7/29 65/292/29
f 65/123/29 66/128/29 6/293/29
f 5/8/30 4/4/30 64/294/30
f 64/121/30 65/126/30 5/295/30
f 4/6/31 15/25/31 74/296/31
f 74/141/31 64/124/31 4/297/31
f 15/27/32 14/298/32 75/299/32
f 75/300/32 74/144/32 15/301/32
f 14/24/5 1/302/5 62/143/5
f 62/303/5 75/142/5 14/304/5
f 1/1/33 3/305/33 63/120/33
f 63/306/33 62/119/33 1/26/33
f 3/307/34 2/2/34 61/122/34
f 61/118/34 63/308/34 3/3/34
f 2/309/3 13/23/3 73/158/3
f 73/139/3 61/310/3 2/5/3
f 13/311/35 22/40/35 82/160/35
f 82/157/35 73/312/35 13/41/35
f 22/313/36 23/42/36 83/164/36
f 83/159/36 82/314/36 22/43/36
f 23/315/37 25/46/37 85/168/37
f 85/163/37 83/316/37 23/47/37
f 25/317/38 27/50/38 87/172/38
f 87/167/38 85/318/38 25/51/38
f 27/319/39 29/54/39 89/176/39
f 89/171/39 87/320/39 27/55/39
f 29/321/40 31/58/40 91/180/40
f 91/175/40 89/322/40 29/59/40
f 31/323/41 33/62/41 93/184/41
f 93/179/41 91/324/41 31/63/41
f 33/325/42 35/66/42 95/188/42
f 95/183/42 93/326/42 33/67/42
f 35/327/43 37/70/43 97/192/43
f 97/187/43 95/328/43 35/71/43
f 37/329/44 39/74/44 99/196/44
f 99/191/44 97/330/44 37/75/44
f 39/331/45 41/78/45 101/198/45
f 101/195/45 99/332/45 39/79/45
f 41/333/46 42/80/46 102/202/46
f 102/197/46 101/334/46 41/81/46
f 42/335/47 44/84/47 104/204/47
f 104/201/47 102/336/47 42/85/47
f 44/337/48 45/86/48 105/208/48
f 105/203/48 104/338/48 44/87/48
f 45/339/49 47/90/49 107/210/49
f 107/207/49 105/340/49 45/91/49
f 47/341/50 48/92/50 108/212/50
f 108/209/50 107/342/50 47/93/50
f 48/343/51 49/94/51 109/214/51
f 109/211/51 108/344/51 48/95/51
f 49/345/52 50/96/52 110/216/52
f 110/213/52 109/346/52 49/97/52
f 50/347/53 51/98/53 111/218/53
f 111/215/53 110/348/53 50/99/53
f 51/349/54 52/100/54 112/220/54
f 112/217/54 111/350/54 51/101/54
f 52/351/55 53/102/55 113/222/55
f 113/219/55 112/352/55 52/103/55
f 53/353/56 54/104/56 114/224/56
f 114/221/56 113/354/56 53/105/56
f 54/355/57 55/106/57 115/226/57
f 115/223/57 114/356/57 54/107/57
f 55/357/58 56/108/58 116/230/58
f 116/225/58 115/358/58 55/109/58
f 56/359/59 58/112/59 118/234/59
f 118/229/59 116/360/59 56/113/59
