# Blender v2.78 (sub 0) OBJ File: ''
# www.blender.org
mtllib _4.mtl
o Text056
v 0.211645 -0.021410 -0.141344
v 0.211645 0.312670 -0.141344
v 0.226295 0.312670 0.010806
v 0.226295 -0.021410 0.010806
v 0.400735 0.312670 -0.159554
v 0.415385 0.312670 -0.007404
v 0.400735 0.469880 -0.159554
v 0.415385 0.469880 -0.007404
v 0.211645 0.469880 -0.141344
v 0.226295 0.469880 0.010806
v 0.211645 1.378230 -0.141344
v 0.226295 1.378230 0.010806
v 0.072545 1.378230 -0.127944
v 0.087195 1.378230 0.024196
v -0.566455 0.469880 -0.066414
v -0.551805 0.469880 0.085726
v -0.566455 0.312670 -0.066414
v -0.551805 0.312670 0.085726
v 0.039936 0.312670 -0.124804
v 0.054586 0.312670 0.027336
v 0.039936 -0.021410 -0.124804
v 0.054586 -0.021410 0.027336
v -0.398114 0.469880 -0.082624
v 0.039936 1.100140 -0.124804
v 0.054586 1.100140 0.027336
v -0.383464 0.469880 0.069516
v 0.039936 0.469880 -0.124804
v 0.054586 0.469880 0.027336
v 0.202305 0.338870 0.035046
v 0.202305 0.004790 0.035046
v 0.391395 0.338870 0.016836
v 0.391395 0.443680 0.016836
v 0.202305 0.443680 0.035046
v 0.202305 1.352030 0.035046
v 0.102785 1.352030 0.044626
v -0.523635 0.461560 0.104946
v -0.523635 0.338870 0.104946
v 0.082766 0.338870 0.046556
v 0.082766 0.004790 0.046556
v 0.082766 1.183430 0.046556
v -0.431394 0.443680 0.096066
v 0.082766 0.443680 0.046556
vt 1.0000 0.0000
vt 1.0000 1.0000
vt 0.0000 1.0000
vt 0.0000 1.0000
vt 0.0000 0.0000
vt 1.0000 0.0000
vt 1.0000 0.0000
vt 1.0000 1.0000
vt 0.0000 1.0000
vt 0.0000 1.0000
vt 0.0000 0.0000
vt 1.0000 0.0000
vt 1.0000 0.0000
vt 1.0000 1.0000
vt 0.0000 1.0000
vt 0.0000 1.0000
vt 0.0000 0.0000
vt 1.0000 0.0000
vt 1.0000 0.0000
vt 1.0000 1.0000
vt 0.0000 1.0000
vt 0.0000 1.0000
vt 0.0000 0.0000
vt 1.0000 0.0000
vt 1.0000 0.0000
vt 1.0000 1.0000
vt 0.0000 1.0000
vt 0.0000 1.0000
vt 0.0000 0.0000
vt 1.0000 0.0000
vt 1.0000 0.0000
vt 1.0000 1.0000
vt 0.0000 1.0000
vt 0.0000 1.0000
vt 0.0000 0.0000
vt 1.0000 0.0000
vt 1.0000 0.0000
vt 1.0000 1.0000
vt 0.0000 1.0000
vt 0.0000 1.0000
vt 0.0000 0.0000
vt 1.0000 0.0000
vt 1.0000 0.0000
vt 1.0000 1.0000
vt 0.0000 1.0000
vt 0.0000 1.0000
vt 0.0000 0.0000
vt 1.0000 0.0000
vt 1.0000 0.0000
vt 1.0000 1.0000
vt 0.0000 1.0000
vt 0.0000 1.0000
vt 0.0000 0.0000
vt 1.0000 0.0000
vt 1.0000 0.0000
vt 1.0000 1.0000
vt 0.0000 1.0000
vt 0.0000 1.0000
vt 0.0000 0.0000
vt 1.0000 0.0000
vt 1.0000 0.0000
vt 1.0000 1.0000
vt 0.0000 1.0000
vt 0.0000 1.0000
vt 0.0000 0.0000
vt 1.0000 0.0000
vt 1.0000 0.0000
vt 1.0000 1.0000
vt 0.0000 1.0000
vt 0.0000 1.0000
vt 0.0000 0.0000
vt 1.0000 0.0000
vt 1.0000 0.0000
vt 1.0000 1.0000
vt 0.0000 1.0000
vt 0.0000 1.0000
vt 0.0000 0.0000
vt 1.0000 0.0000
vt 0.0000 0.0000
vt 1.0000 0.0000
vt 0.0000 0.0000
vt 1.0000 0.0000
vt 0.0000 0.0000
vt 1.0000 0.0000
vt 0.0000 0.0000
vt 1.0000 0.0000
vt 0.0000 0.0000
vt 1.0000 0.0000
vt 0.0000 0.0000
vt 1.0000 0.0000
vt 1.0000 0.0000
vt 0.0000 0.0000
vt 1.0000 0.0000
vt 1.0000 1.0000
vt 0.0000 1.0000
vt 1.0000 0.0000
vt 1.0000 1.0000
vt 0.0000 1.0000
vt 1.0000 1.0000
vt 0.0000 0.0000
vt 0.0000 1.0000
vt 1.0000 1.0000
vt 0.0000 1.0000
vt 1.0000 1.0000
vt 0.0000 1.0000
vt 1.0000 1.0000
vt 0.0000 1.0000
vt 1.0000 0.0000
vt 1.0000 1.0000
vt 0.0000 1.0000
vt 0.0000 1.0000
vn -0.9735 -0.0000 0.2285
vn 0.9986 0.0000 0.0529
vn 0.0123 -0.9917 0.1280
vn 0.9995 0.0000 0.0310
vn 0.0124 0.9915 0.1293
vn 0.0142 -0.9889 0.1476
vn 0.0142 0.9889 0.1476
vn -0.9702 -0.0000 0.2425
vn -0.9674 -0.0000 0.2532
vn 0.8210 -0.5652 0.0809
vn 0.0153 0.9872 0.1585
vn -0.7899 0.5709 0.2238
vn 0.0958 0.0000 0.9954
vn 0.0959 0.0000 0.9954
vn -0.0959 0.0000 -0.9954
vn -0.0958 0.0000 -0.9954
vn 0.0142 -0.9889 0.1477
usemtl wire_088177026
s 1
f 18/1/1 37/2/1 36/3/1 16/4/1 15/5/1 17/6/1
f 3/7/2 29/8/2 30/9/2 4/10/2 1/11/2 2/12/2
f 4/13/3 30/14/3 39/15/3 22/16/3 21/17/3 1/18/3
f 8/19/4 32/20/4 31/21/4 6/22/4 5/23/4 7/24/4
f 14/25/5 35/26/5 34/27/5 12/28/5 11/29/5 13/30/5
f 6/31/6 31/32/6 29/33/6 3/34/6 2/35/6 5/36/6
f 10/37/7 33/38/7 32/39/7 8/40/7 7/41/7 9/42/7
f 22/43/8 39/44/8 38/45/8 20/46/8 19/47/8 21/48/8
f 28/49/9 42/50/9 40/51/9 25/52/9 24/53/9 27/54/9
f 25/55/10 40/56/10 41/57/10 26/58/10 23/59/10 24/60/10
f 26/61/11 41/62/11 42/63/11 28/64/11 27/65/11 23/66/11
f 16/67/12 36/68/12 35/69/12 14/70/12 13/71/12 15/72/12
f 12/73/2 34/74/2 33/75/2 10/76/2 9/77/2 11/78/2
f 40/79/13 42/80/13 30/14/13 29/33/13
f 38/81/13 39/82/13 30/14/13 42/63/13
f 37/83/13 38/84/13 42/50/13 41/57/13
f 36/85/13 37/86/13 41/62/13 35/69/13
f 35/87/13 41/88/13 40/56/13 33/75/14
f 33/89/14 34/90/13 35/26/13
f 33/89/14 40/91/13 29/8/13 32/39/14
f 32/92/14 29/93/13 31/32/14
f 24/53/15 9/42/15 2/94/15 1/95/15
f 1/11/15 19/96/15 27/97/15 24/98/15
f 19/47/15 1/18/15 21/99/15
f 17/100/16 23/66/16 27/97/15 19/101/15
f 15/5/16 13/30/15 23/102/16 17/103/16
f 13/71/15 9/42/15 24/104/15 23/105/16
f 9/77/15 13/30/15 11/106/15
f 7/41/15 5/36/15 2/94/15 9/107/15
f 20/108/17 38/109/17 37/110/17 18/111/17 17/100/17 19/96/17
