# Blender v2.78 (sub 0) OBJ File: ''
# www.blender.org
mtllib _7.mtl
o Text059
v 0.267798 0.869381 -0.205561
v 0.247079 0.882081 -0.181631
v 0.210649 0.813741 -0.178121
v 0.231739 0.801741 -0.202091
v 0.217089 0.801741 -0.354231
v 0.253149 0.869381 -0.357711
v -0.370931 1.215931 -0.144061
v -0.342752 1.242141 -0.124840
v -0.342752 1.355681 -0.124840
v -0.370931 1.381881 -0.144060
v -0.385581 1.381881 -0.296201
v -0.385581 1.215931 -0.296201
v 0.099448 0.910491 -0.189351
v 0.124219 0.897531 -0.169801
v 0.157679 0.954761 -0.173021
v 0.133299 0.968361 -0.192611
v 0.118649 0.968361 -0.344761
v 0.084809 0.910491 -0.341501
v 0.176639 0.744811 -0.174851
v 0.198099 0.733551 -0.198851
v 0.183449 0.733551 -0.351001
v 0.311539 1.215931 -0.209781
v 0.369719 1.242141 -0.193441
v 0.296889 1.215931 -0.361921
v 0.138088 0.595531 -0.193071
v 0.115949 0.605231 -0.169011
v 0.089259 0.534601 -0.166441
v 0.111709 0.525711 -0.190531
v 0.097059 0.525711 -0.342681
v 0.123439 0.595531 -0.345221
v 0.066209 0.384421 -0.186151
v 0.043249 0.391711 -0.162011
v 0.029149 0.340061 -0.160651
v 0.052329 0.333561 -0.184821
v 0.037679 0.333561 -0.336961
v 0.051558 0.384421 -0.338301
v 0.167739 1.023451 -0.195931
v 0.191699 1.009161 -0.176301
v 0.226279 1.060751 -0.179631
v 0.202789 1.075751 -0.199301
v 0.188139 1.075751 -0.351451
v 0.153099 1.023451 -0.348071
v 0.531059 1.247591 -0.230911
v 0.507079 1.257601 -0.206671
v 0.475429 1.222041 -0.203621
v 0.493159 1.205001 -0.227261
v 0.478509 1.205001 -0.379411
v 0.516409 1.247591 -0.383061
v 0.004709 0.724371 -0.180231
v 0.030559 0.713571 -0.160781
v 0.059859 0.775871 -0.163601
v 0.034359 0.787441 -0.183091
v 0.019719 0.787441 -0.335231
v -0.009941 0.724371 -0.332371
v 0.066209 0.849831 -0.186151
v 0.091339 0.837541 -0.166641
v 0.051558 0.849831 -0.338301
v -0.022771 0.660611 -0.177591
v 0.003428 0.650601 -0.158171
v -0.037421 0.660611 -0.329731
v 0.238439 1.125261 -0.202741
v 0.261389 1.109531 -0.183011
v 0.297049 1.155491 -0.186441
v 0.274689 1.171991 -0.206231
v 0.260039 1.171991 -0.358371
v 0.223788 1.125261 -0.354881
v -0.168881 0.099701 -0.163521
v -0.140851 0.096931 -0.144281
v -0.134151 0.150161 -0.144921
v -0.162061 0.153901 -0.164171
v -0.176711 0.153901 -0.316321
v -0.183532 0.099701 -0.315661
v 0.305119 0.934851 -0.209161
v 0.284759 0.948181 -0.185261
v 0.290468 0.934851 -0.361301
v 0.507079 1.355681 -0.206670
v 0.531059 1.381881 -0.230910
v 0.516409 1.381881 -0.383061
v -0.071151 0.531061 -0.172931
v -0.044341 0.522671 -0.153571
v -0.021531 0.586971 -0.155771
v -0.048051 0.596181 -0.175151
v -0.062701 0.596181 -0.327291
v -0.085801 0.531061 -0.325071
v -0.110771 0.398771 -0.169111
v -0.083482 0.392001 -0.149801
v -0.064981 0.457701 -0.151581
v -0.092052 0.465251 -0.170911
v -0.106701 0.465251 -0.323061
v -0.125422 0.398771 -0.321251
v -0.127201 0.333341 -0.167531
v -0.099731 0.327261 -0.148241
v -0.141851 0.333341 -0.319671
v -0.125072 0.206301 -0.145801
v -0.152842 0.210911 -0.165061
v -0.167491 0.210911 -0.317201
v -0.113601 0.265341 -0.146901
v -0.141221 0.270721 -0.166181
v -0.155871 0.270721 -0.318321
v -0.173301 0.048301 -0.163091
v -0.145171 0.046631 -0.143861
v -0.187951 0.048301 -0.315231
v 0.016569 0.286981 -0.159441
v 0.039948 0.281331 -0.183621
v 0.025299 0.281331 -0.335771
v 0.005558 0.058761 -0.180311
v -0.018312 0.061271 -0.156081
v -0.021201 0.025912 -0.155801
v 0.000739 -0.000289 -0.179851
v -0.013911 -0.000289 -0.331991
v -0.009091 0.058761 -0.332461
v 0.455359 1.158601 -0.223621
v 0.436939 1.174792 -0.199911
v 0.398639 1.123781 -0.196231
v 0.417659 1.108381 -0.219991
v 0.403008 1.108381 -0.372141
v 0.440709 1.158601 -0.375771
v 0.019729 0.172771 -0.181681
v -0.003951 0.176801 -0.157461
v -0.011901 0.119701 -0.156701
v 0.011889 0.116451 -0.180921
v -0.002761 0.116451 -0.333071
v 0.005079 0.172771 -0.333821
v 0.087749 0.455342 -0.188231
v 0.065019 0.463401 -0.164101
v 0.073099 0.455342 -0.340371
v 0.360518 1.069011 -0.192561
v 0.380049 1.054351 -0.216371
v 0.365398 1.054351 -0.368511
v -0.175311 -0.000289 -0.162901
v -0.146031 0.025912 -0.143781
v -0.189961 -0.000289 -0.315041
v 0.029088 0.227731 -0.182581
v 0.005539 0.232561 -0.158371
v 0.014439 0.227731 -0.334721
v 0.145069 0.675301 -0.171811
v 0.166888 0.664811 -0.195851
v 0.152239 0.664811 -0.347991
v 0.322558 1.010481 -0.188901
v 0.342529 0.996501 -0.212761
v 0.327879 0.996501 -0.364901
vt 1.0000 0.0000
vt 1.0000 1.0000
vt 0.0000 1.0000
vt 0.0000 1.0000
vt 0.0000 0.0000
vt 1.0000 0.0000
vt 1.0000 0.0000
vt 1.0000 1.0000
vt 0.0000 1.0000
vt 0.0000 1.0000
vt 0.0000 0.0000
vt 1.0000 0.0000
vt 1.0000 0.0000
vt 1.0000 1.0000
vt 0.0000 1.0000
vt 0.0000 1.0000
vt 0.0000 0.0000
vt 1.0000 0.0000
vt 1.0000 0.0000
vt 1.0000 1.0000
vt 0.0000 1.0000
vt 0.0000 1.0000
vt 0.0000 0.0000
vt 1.0000 0.0000
vt 1.0000 0.0000
vt 1.0000 1.0000
vt 0.0000 1.0000
vt 0.0000 1.0000
vt 0.0000 0.0000
vt 1.0000 0.0000
vt 1.0000 0.0000
vt 1.0000 1.0000
vt 0.0000 1.0000
vt 0.0000 1.0000
vt 0.0000 0.0000
vt 1.0000 0.0000
vt 1.0000 0.0000
vt 1.0000 1.0000
vt 0.0000 1.0000
vt 0.0000 1.0000
vt 0.0000 0.0000
vt 1.0000 0.0000
vt 1.0000 0.0000
vt 1.0000 1.0000
vt 0.0000 1.0000
vt 0.0000 1.0000
vt 0.0000 0.0000
vt 1.0000 0.0000
vt 1.0000 0.0000
vt 1.0000 1.0000
vt 0.0000 1.0000
vt 0.0000 1.0000
vt 0.0000 0.0000
vt 1.0000 0.0000
vt 1.0000 0.0000
vt 1.0000 1.0000
vt 0.0000 1.0000
vt 0.0000 1.0000
vt 0.0000 0.0000
vt 1.0000 0.0000
vt 1.0000 0.0000
vt 1.0000 1.0000
vt 0.0000 1.0000
vt 0.0000 1.0000
vt 0.0000 0.0000
vt 1.0000 0.0000
vt 1.0000 0.0000
vt 1.0000 1.0000
vt 0.0000 1.0000
vt 0.0000 1.0000
vt 0.0000 0.0000
vt 1.0000 0.0000
vt 1.0000 0.0000
vt 1.0000 1.0000
vt 0.0000 1.0000
vt 0.0000 1.0000
vt 0.0000 0.0000
vt 1.0000 0.0000
vt 1.0000 0.0000
vt 1.0000 1.0000
vt 0.0000 1.0000
vt 0.0000 1.0000
vt 0.0000 0.0000
vt 1.0000 0.0000
vt 1.0000 0.0000
vt 1.0000 1.0000
vt 0.0000 1.0000
vt 0.0000 1.0000
vt 0.0000 0.0000
vt 1.0000 0.0000
vt 1.0000 0.0000
vt 1.0000 1.0000
vt 0.0000 1.0000
vt 0.0000 1.0000
vt 0.0000 0.0000
vt 1.0000 0.0000
vt 1.0000 0.0000
vt 1.0000 1.0000
vt 0.0000 1.0000
vt 0.0000 1.0000
vt 0.0000 0.0000
vt 1.0000 0.0000
vt 1.0000 0.0000
vt 1.0000 1.0000
vt 0.0000 1.0000
vt 0.0000 1.0000
vt 0.0000 0.0000
vt 1.0000 0.0000
vt 1.0000 0.0000
vt 1.0000 1.0000
vt 0.0000 1.0000
vt 0.0000 1.0000
vt 0.0000 0.0000
vt 1.0000 0.0000
vt 1.0000 0.0000
vt 1.0000 1.0000
vt 0.0000 1.0000
vt 0.0000 1.0000
vt 0.0000 0.0000
vt 1.0000 0.0000
vt 1.0000 0.0000
vt 1.0000 1.0000
vt 0.0000 1.0000
vt 0.0000 1.0000
vt 0.0000 0.0000
vt 1.0000 0.0000
vt 1.0000 0.0000
vt 1.0000 1.0000
vt 0.0000 1.0000
vt 0.0000 1.0000
vt 0.0000 0.0000
vt 1.0000 0.0000
vt 1.0000 0.0000
vt 1.0000 1.0000
vt 0.0000 1.0000
vt 0.0000 1.0000
vt 0.0000 0.0000
vt 1.0000 0.0000
vt 1.0000 0.0000
vt 1.0000 1.0000
vt 0.0000 1.0000
vt 0.0000 1.0000
vt 0.0000 0.0000
vt 1.0000 0.0000
vt 1.0000 0.0000
vt 1.0000 1.0000
vt 0.0000 1.0000
vt 0.0000 1.0000
vt 0.0000 0.0000
vt 1.0000 0.0000
vt 1.0000 0.0000
vt 1.0000 1.0000
vt 0.0000 1.0000
vt 0.0000 1.0000
vt 0.0000 0.0000
vt 1.0000 0.0000
vt 1.0000 0.0000
vt 1.0000 1.0000
vt 0.0000 1.0000
vt 0.0000 1.0000
vt 0.0000 0.0000
vt 1.0000 0.0000
vt 1.0000 0.0000
vt 1.0000 1.0000
vt 0.0000 1.0000
vt 0.0000 1.0000
vt 0.0000 0.0000
vt 1.0000 0.0000
vt 1.0000 0.0000
vt 1.0000 1.0000
vt 0.0000 1.0000
vt 0.0000 1.0000
vt 0.0000 0.0000
vt 1.0000 0.0000
vt 1.0000 0.0000
vt 1.0000 1.0000
vt 0.0000 1.0000
vt 0.0000 1.0000
vt 0.0000 0.0000
vt 1.0000 0.0000
vt 1.0000 0.0000
vt 1.0000 1.0000
vt 0.0000 1.0000
vt 0.0000 1.0000
vt 0.0000 0.0000
vt 1.0000 0.0000
vt 1.0000 0.0000
vt 1.0000 1.0000
vt 0.0000 1.0000
vt 0.0000 1.0000
vt 0.0000 0.0000
vt 1.0000 0.0000
vt 1.0000 0.0000
vt 1.0000 1.0000
vt 0.0000 1.0000
vt 0.0000 1.0000
vt 0.0000 0.0000
vt 1.0000 0.0000
vt 1.0000 0.0000
vt 1.0000 1.0000
vt 0.0000 1.0000
vt 0.0000 1.0000
vt 0.0000 0.0000
vt 1.0000 0.0000
vt 1.0000 0.0000
vt 1.0000 1.0000
vt 0.0000 1.0000
vt 0.0000 1.0000
vt 0.0000 0.0000
vt 1.0000 0.0000
vt 1.0000 0.0000
vt 1.0000 1.0000
vt 0.0000 1.0000
vt 0.0000 1.0000
vt 0.0000 0.0000
vt 1.0000 0.0000
vt 1.0000 0.0000
vt 1.0000 1.0000
vt 0.0000 1.0000
vt 0.0000 1.0000
vt 0.0000 0.0000
vt 1.0000 0.0000
vt 1.0000 0.0000
vt 1.0000 1.0000
vt 0.0000 1.0000
vt 0.0000 1.0000
vt 0.0000 0.0000
vt 1.0000 0.0000
vt 1.0000 0.0000
vt 1.0000 1.0000
vt 0.0000 1.0000
vt 0.0000 1.0000
vt 0.0000 0.0000
vt 1.0000 0.0000
vt 1.0000 0.0000
vt 1.0000 1.0000
vt 0.0000 1.0000
vt 0.0000 1.0000
vt 0.0000 0.0000
vt 1.0000 0.0000
vt 1.0000 0.0000
vt 1.0000 1.0000
vt 0.0000 1.0000
vt 0.0000 1.0000
vt 0.0000 0.0000
vt 1.0000 0.0000
vt 1.0000 0.0000
vt 1.0000 1.0000
vt 0.0000 1.0000
vt 0.0000 1.0000
vt 0.0000 0.0000
vt 1.0000 0.0000
vt 1.0000 0.0000
vt 1.0000 1.0000
vt 0.0000 1.0000
vt 0.0000 1.0000
vt 0.0000 0.0000
vt 1.0000 0.0000
vt 1.0000 0.0000
vt 1.0000 1.0000
vt 0.0000 1.0000
vt 0.0000 1.0000
vt 0.0000 0.0000
vt 1.0000 0.0000
vt 1.0000 0.0000
vt 1.0000 1.0000
vt 0.0000 1.0000
vt 0.0000 1.0000
vt 0.0000 0.0000
vt 1.0000 0.0000
vt 1.0000 0.0000
vt 1.0000 1.0000
vt 0.0000 1.0000
vt 0.0000 1.0000
vt 0.0000 0.0000
vt 1.0000 0.0000
vt 0.0000 0.0000
vt 1.0000 0.0000
vt 0.0000 0.0000
vt 1.0000 0.0000
vt 0.0000 0.0000
vt 1.0000 0.0000
vt 0.0000 0.0000
vt 1.0000 0.0000
vt 0.0000 0.0000
vt 1.0000 0.0000
vt 0.0000 0.0000
vt 1.0000 0.0000
vt 0.0000 0.0000
vt 1.0000 0.0000
vt 0.0000 0.0000
vt 1.0000 0.0000
vt 0.0000 0.0000
vt 1.0000 0.0000
vt 0.0000 0.0000
vt 1.0000 0.0000
vt 0.0000 1.0000
vt 0.0000 0.0000
vt 1.0000 0.0000
vt 0.0000 0.0000
vt 1.0000 0.0000
vt 1.0000 1.0000
vt 0.0000 0.0000
vt 1.0000 0.0000
vt 0.0000 0.0000
vt 1.0000 0.0000
vt 0.0000 0.0000
vt 1.0000 0.0000
vt 0.0000 0.0000
vt 1.0000 0.0000
vt 0.0000 0.0000
vt 1.0000 0.0000
vt 0.0000 0.0000
vt 1.0000 0.0000
vt 0.0000 0.0000
vt 1.0000 0.0000
vt 0.0000 0.0000
vt 1.0000 0.0000
vt 1.0000 0.0000
vt 0.0000 0.0000
vt 1.0000 0.0000
vt 0.0000 0.0000
vt 1.0000 0.0000
vt 1.0000 1.0000
vt 0.0000 1.0000
vt 1.0000 1.0000
vt 0.0000 1.0000
vt 1.0000 1.0000
vt 0.0000 1.0000
vt 1.0000 1.0000
vt 0.0000 1.0000
vt 1.0000 1.0000
vt 0.0000 1.0000
vt 1.0000 1.0000
vt 0.0000 1.0000
vt 1.0000 1.0000
vt 0.0000 1.0000
vt 1.0000 1.0000
vt 0.0000 1.0000
vt 1.0000 1.0000
vt 0.0000 1.0000
vt 1.0000 1.0000
vt 0.0000 1.0000
vt 1.0000 1.0000
vt 0.0000 1.0000
vt 1.0000 1.0000
vt 0.0000 1.0000
vt 1.0000 1.0000
vt 0.0000 1.0000
vt 1.0000 1.0000
vt 0.0000 1.0000
vt 1.0000 1.0000
vt 0.0000 1.0000
vt 1.0000 1.0000
vt 0.0000 1.0000
vt 1.0000 1.0000
vt 0.0000 1.0000
vt 0.0000 1.0000
vt 1.0000 1.0000
vt 0.0000 1.0000
vt 1.0000 1.0000
vt 0.0000 1.0000
vt 1.0000 1.0000
vt 0.0000 1.0000
vt 0.0000 1.0000
vt 1.0000 0.0000
vt 0.0000 1.0000
vt 0.0000 0.0000
vt 1.0000 0.0000
vn 0.8753 -0.4792 0.0654
vn 0.8892 -0.4530 0.0641
vn -0.9750 -0.0000 0.2223
vn -0.8416 0.4891 0.2293
vn -0.8272 0.5136 0.2279
vn 0.9031 -0.4248 0.0628
vn 0.0145 -0.9885 0.1505
vn 0.9286 -0.3660 0.0604
vn 0.9402 -0.3355 0.0593
vn 0.9635 -0.2614 0.0572
vn 0.9678 -0.2453 0.0569
vn -0.8111 0.5393 0.2263
vn -0.7932 0.5661 0.2245
vn 0.7482 -0.6601 0.0663
vn 0.7623 -0.6433 0.0709
vn -0.8828 0.4078 0.2332
vn -0.8691 0.4369 0.2319
vn -0.8552 0.4642 0.2306
vn -0.8957 0.3779 0.2345
vn -0.7731 0.5939 0.2225
vn -0.7443 0.6197 0.2491
vn -0.9649 0.1046 0.2407
vn -0.9603 0.1414 0.2404
vn -0.9603 0.1413 0.2404
vn 0.8616 -0.5031 0.0667
vn 0.0139 0.9895 0.1440
vn -0.9186 0.3164 0.2367
vn -0.9076 0.3474 0.2357
vn -0.9369 0.2556 0.2385
vn -0.9286 0.2850 0.2377
vn -0.9435 0.2295 0.2392
vn -0.9550 0.1741 0.2401
vn -0.9493 0.2033 0.2397
vn -0.9728 0.0632 0.2229
vn -0.9728 0.0632 0.2230
vn 0.9754 -0.2132 0.0561
vn 0.9947 -0.0947 0.0405
vn 0.9947 -0.0948 0.0405
vn 0.9963 -0.0811 0.0267
vn 0.7882 -0.6109 0.0742
vn 0.8106 -0.5811 0.0719
vn -0.7252 0.6306 0.2764
vn 0.9869 -0.1519 0.0549
vn 0.9910 -0.1227 0.0545
vn 0.9508 -0.3044 0.0582
vn 0.9508 -0.3043 0.0582
vn 0.9557 -0.2886 0.0577
vn 0.8300 -0.5533 0.0699
vn -0.9779 0.0413 0.2050
vn 0.9817 -0.1820 0.0555
vn 0.9163 -0.3958 0.0616
vn 0.0124 -0.9916 0.1289
vn 0.8469 -0.5273 0.0682
vn 0.9994 -0.0000 0.0352
vn 0.0959 0.0000 0.9954
vn 0.0959 -0.0001 0.9954
vn 0.0958 0.0000 0.9954
vn -0.0959 -0.0000 -0.9954
vn -0.0958 0.0000 -0.9954
vn -0.0958 0.0001 -0.9954
usemtl wire_088177026
s 1
f 1/1/1 2/2/1 3/3/2 4/4/2 5/5/2 6/6/1
f 7/7/3 8/8/3 9/9/3 10/10/3 11/11/3 12/12/3
f 13/13/4 14/14/4 15/15/5 16/16/5 17/17/5 18/18/4
f 4/19/2 3/20/2 19/21/6 20/22/6 21/23/6 5/24/2
f 22/25/7 23/26/7 8/27/7 7/28/7 12/29/7 24/30/7
f 25/31/8 26/32/8 27/33/9 28/34/9 29/35/9 30/36/8
f 31/37/10 32/38/10 33/39/11 34/40/11 35/41/11 36/42/10
f 37/43/12 38/44/12 39/45/13 40/46/13 41/47/13 42/48/12
f 43/49/14 44/50/14 45/51/15 46/52/15 47/53/15 48/54/14
f 49/55/16 50/56/16 51/57/17 52/58/17 53/59/17 54/60/16
f 55/61/18 56/62/18 14/63/4 13/64/4 18/65/4 57/66/18
f 58/67/19 59/68/19 50/69/16 49/70/16 54/71/16 60/72/19
f 61/73/20 62/74/20 63/75/21 64/76/21 65/77/21 66/78/20
f 67/79/22 68/80/22 69/81/23 70/82/23 71/83/24 72/84/22
f 73/85/25 74/86/25 2/87/1 1/88/1 6/89/1 75/90/25
f 10/91/26 9/92/26 76/93/26 77/94/26 78/95/26 11/96/26
f 79/97/27 80/98/27 81/99/28 82/100/28 83/101/28 84/102/27
f 85/103/29 86/104/29 87/105/30 88/106/30 89/107/30 90/108/29
f 91/109/31 92/110/31 86/111/29 85/112/29 90/113/29 93/114/31
f 70/115/23 69/116/23 94/117/32 95/118/32 96/119/32 71/120/24
f 16/121/5 15/122/5 38/123/12 37/124/12 42/125/12 17/126/5
f 95/127/32 94/128/32 97/129/33 98/130/33 99/131/33 96/132/32
f 82/133/28 81/134/28 59/135/19 58/136/19 60/137/19 83/138/28
f 100/139/34 101/140/35 68/141/22 67/142/22 72/143/22 102/144/34
f 98/145/33 97/146/33 92/147/31 91/148/31 93/149/31 99/150/33
f 34/151/11 33/152/11 103/153/36 104/154/36 105/155/36 35/156/11
f 106/157/37 107/158/38 108/159/39 109/160/39 110/161/39 111/162/38
f 112/163/40 113/164/40 114/165/41 115/166/41 116/167/41 117/168/40
f 64/169/21 63/170/21 23/171/42 22/172/42 24/173/42 65/174/21
f 52/175/17 51/176/17 56/177/18 55/178/18 57/179/18 53/180/17
f 40/181/13 39/182/13 62/183/20 61/184/20 66/185/20 41/186/13
f 118/187/43 119/188/43 120/189/44 121/190/44 122/191/44 123/192/43
f 124/193/45 125/194/46 32/195/47 31/196/47 36/197/47 126/198/45
f 28/199/9 27/200/9 125/201/46 124/202/45 126/203/45 29/204/9
f 115/205/41 114/206/41 127/207/48 128/208/48 129/209/48 116/210/41
f 130/211/49 131/212/49 101/213/35 100/214/34 102/215/34 132/216/49
f 133/217/50 134/218/50 119/219/43 118/220/43 123/221/43 135/222/50
f 104/223/36 103/224/36 134/225/50 133/226/50 135/227/50 105/228/36
f 20/229/6 19/230/6 136/231/51 137/232/51 138/233/51 21/234/6
f 46/235/15 45/236/15 113/237/40 112/238/40 117/239/40 47/240/15
f 109/241/52 108/242/52 131/243/52 130/244/52 132/245/52 110/246/52
f 128/247/48 127/248/48 139/249/53 140/250/53 141/251/53 129/252/48
f 140/253/53 139/254/53 74/255/25 73/256/25 75/257/25 141/258/53
f 88/259/30 87/260/30 80/261/27 79/262/27 84/263/27 89/264/30
f 121/265/44 120/266/44 107/267/38 106/268/37 111/269/38 122/270/44
f 77/271/54 76/272/54 44/273/54 43/274/54 48/275/54 78/276/54
f 101/277/55 131/278/55 108/242/55 107/267/55
f 68/279/55 101/280/55 107/158/55 120/189/55
f 69/281/56 68/282/55 120/266/55 119/219/55
f 94/283/57 69/284/56 119/188/55 134/225/57
f 97/285/57 94/286/57 134/218/57 103/153/55
f 92/287/55 97/288/57 103/224/55 33/39/55
f 86/289/55 92/290/55 33/152/55 32/195/56
f 87/291/55 86/292/55 32/38/56 125/201/55
f 80/293/55 87/294/55 125/194/55 27/33/55
f 81/295/55 80/296/55 27/200/55 26/297/55
f 59/298/56 81/299/55 26/32/55 50/69/56
f 50/300/56 26/301/55 136/302/55 51/57/55
f 51/303/55 136/304/55 19/230/55 56/177/57
f 56/305/57 19/306/55 3/20/57 14/63/57
f 14/307/57 3/308/57 2/2/55 15/15/55
f 15/309/55 2/310/55 74/86/55 38/123/55
f 38/311/55 74/312/55 139/254/55 39/45/55
f 62/313/55 39/314/55 139/254/55 127/207/55
f 63/315/56 62/316/55 127/248/55 114/165/56
f 23/317/55 63/318/56 114/206/56 113/237/55
f 23/317/55 113/319/55 45/236/55 76/93/55
f 9/320/57 8/321/57 23/26/55 76/93/55
f 44/322/55 76/323/55 45/236/55
f 102/215/58 111/162/58 110/324/58 132/325/58
f 72/143/58 122/270/58 111/326/58 102/327/58
f 71/83/59 123/192/60 122/328/58 72/329/58
f 96/119/58 135/222/58 123/330/60 71/331/59
f 99/131/58 105/228/58 135/332/58 96/333/58
f 93/149/58 35/156/58 105/334/58 99/335/58
f 90/113/58 36/42/58 35/336/58 93/337/58
f 89/107/58 126/198/58 36/338/58 90/339/58
f 84/263/58 29/204/58 126/340/58 89/341/58
f 83/101/58 30/36/58 29/342/58 84/343/58
f 60/137/58 54/60/58 30/344/58 83/345/58
f 54/71/58 53/180/58 138/346/58 30/347/58
f 53/59/58 57/66/59 21/348/59 138/349/58
f 57/179/59 18/18/59 5/350/59 21/351/59
f 18/65/59 17/126/59 6/352/59 5/353/59
f 17/17/59 42/48/59 75/354/59 6/355/59
f 42/125/59 41/186/59 141/356/59 75/357/59
f 66/185/59 129/252/59 141/356/59 41/358/59
f 65/77/58 116/210/58 129/359/59 66/360/59
f 24/173/58 117/168/58 116/361/58 65/362/58
f 11/11/58 78/276/58 24/363/58 12/364/58
f 48/275/58 47/240/58 24/363/58 78/365/58
f 47/53/58 117/168/58 24/363/58
f 137/366/51 136/302/51 26/297/8 25/367/8 30/368/8 138/369/51
